<svg width="1024" height="1024" viewBox="0 0 1024 1024" fill="none" xmlns="http://www.w3.org/2000/svg">
<defs>
<clipPath id="waterline">
<rect x="0" y="0" width="1024" height="870" />
</clipPath>
</defs>

<style>
#orca {
  transform-origin: 512px 512px;
  transform: translateY(800px) rotate(-180deg);
  animation: emerge 2.8s cubic-bezier(0.2, 0.8, 0.3, 1) forwards;
  animation-delay: 0.4s;
}

.square {
  opacity: 0;
  transform: scale(0.6);
  animation: revealSquare 0.8s cubic-bezier(0.2, 0.8, 0.2, 1) forwards;
}

@keyframes emerge {
  0% { transform: translateY(800px) rotate(-180deg); }
  100% { transform: translateY(0) rotate(0); }
}

@keyframes revealSquare {
  0% { transform: scale(0.6); opacity: 0; }
  100% { transform: scale(1); opacity: 1; }
}

#sq1 { transform-origin: 461.57px 771.01px; animation-delay: 0.8s; }
#sq2 { transform-origin: 568.56px 770.46px; animation-delay: 1.0s; }
#sq3 { transform-origin: 675.43px 771.06px; animation-delay: 1.2s; }
#sq4 { transform-origin: 675.37px 679.78px; animation-delay: 1.4s; }
#sq5 { transform-origin: 783.49px 771.24px; animation-delay: 1.6s; }
#sq6 { transform-origin: 783.46px 680.00px; animation-delay: 1.8s; }
#sq7 { transform-origin: 783.42px 591.00px; animation-delay: 2.0s; }
#sq8 { transform-origin: 890.68px 771.07px; animation-delay: 2.2s; }
</style>
<g id="orca" clip-path="url(#waterline)">
<path fill-rule="evenodd" clip-rule="evenodd" d="M302.009 156.13C296.649 156.846 293.59 157.838 291.259 159.616C288.301 161.872 288 162.593 288 167.416C288 171.403 288.561 173.451 290.247 175.615C292.846 178.951 297.016 182.99 297.896 183.023C300.641 183.125 322.039 206.374 331.009 219C333.158 222.025 335.61 225.213 336.458 226.084C337.306 226.955 338 227.948 338 228.289C338 228.631 339.104 230.539 340.454 232.528C343.706 237.319 352.659 255.759 353.562 259.524C353.955 261.161 354.654 262.985 355.117 263.577C356.013 264.724 358.585 275.22 360 283.5C360.47 286.25 360.887 293.496 360.927 299.603C361 310.706 361 310.706 346.67 325.103C334.554 337.274 321.366 351.606 317.5 356.8C316.95 357.539 315.825 358.915 315 359.857C309.629 365.995 289.577 394.16 288.023 397.75C287.488 398.988 286.698 400 286.269 400C285.84 400 284.852 401.462 284.074 403.25C283.297 405.038 282.39 406.725 282.06 407C281.73 407.275 280.909 408.625 280.237 410C278.871 412.794 277.463 415.168 274.726 419.297C272.484 422.678 256.26 454.744 253.614 461.024C252.577 463.486 250.889 467.388 249.864 469.695C248.839 472.002 247.985 474.252 247.966 474.695C247.947 475.138 247.063 477.3 246 479.5C244.937 481.7 244.053 484.187 244.034 485.027C244.015 485.868 243.362 487.466 242.583 488.579C241.803 489.692 240.853 492.267 240.471 494.301C240.09 496.335 239.449 498 239.048 498C238.647 498 237.747 500.587 237.048 503.75C236.349 506.912 235.449 509.95 235.047 510.5C234.645 511.05 233.306 514.875 232.072 519C230.837 523.125 229.172 528.667 228.372 531.317C227.571 533.966 226.24 539.591 225.414 543.817C224.587 548.042 223.237 554.65 222.413 558.5C221.588 562.35 220.259 570.675 219.46 577C218.66 583.325 217.513 590.525 216.91 593C215.518 598.72 214.635 649.274 215.697 662.5C216.5 672.5 216.5 672.5 208.5 673.671C197.998 675.208 185.941 677.822 183.764 679.034C182.809 679.565 181.234 680.015 180.264 680.034C179.294 680.053 176.7 680.937 174.5 682C172.3 683.063 169.893 683.947 169.151 683.966C167.607 684.005 164.285 685.434 151.148 691.708C133.63 700.076 120.459 709.863 101.572 728.55C97.162 732.913 91.283 739.74 85.291 747.457C81.856 751.881 78.666 755.957 78.202 756.516C77.738 757.074 76.062 759.774 74.478 762.516C72.893 765.257 71.349 767.725 71.048 768C70.747 768.275 68.754 771.875 66.619 776C63.594 781.845 62.627 784.99 62.235 790.252C61.776 796.4 61.944 797.211 64.115 799.318C69.402 804.449 76.058 805.062 88.5 801.565C100.804 798.107 105.147 797.785 131 798.416C155.57 799.015 174.954 798.056 177.408 796.121C178.009 795.648 180.107 794.972 182.07 794.619C184.034 794.266 188.706 792.407 192.452 790.488C196.199 788.57 199.572 787 199.948 787C200.324 787 201.68 788.913 202.962 791.25C205.549 795.97 213.365 805.421 219.5 811.248C221.7 813.338 231.375 819.624 241 825.217C258.658 835.477 263.059 838.262 265.942 841C266.81 841.825 268.66 843.4 270.052 844.5C271.443 845.6 275.164 850 278.319 854.277C285.506 864.023 287.297 865.808 291.749 867.669C298.735 870.587 304.472 867.37 308.991 858C310.184 855.525 311.545 852.766 312.015 851.868C314.055 847.972 317.304 822.691 316.753 815C315.931 803.523 313.985 789.629 312.55 785C311.782 782.525 310.836 778.7 310.447 776.5C310.058 774.3 309.397 772.05 308.978 771.5C308.559 770.95 307.669 767.8 307 764.5C306.331 761.2 305.444 758.05 305.03 757.5C304.615 756.95 303.966 755.206 303.587 753.625C302.65 749.71 295.666 735.292 290.358 726.313C286.108 719.126 285.095 715.378 286.879 713.45C287.363 712.928 288.333 710.705 289.036 708.511C289.738 706.316 291.593 702.442 293.157 699.9C294.72 697.358 296 695.011 296 694.684C296 694.143 299.885 687.923 301.736 685.5C302.156 684.95 303.85 682.475 305.5 680C310.014 673.228 331.869 652.259 339.603 647.278C340.646 646.606 343.751 644.538 346.502 642.682C349.254 640.826 352.854 638.554 354.502 637.632C356.151 636.711 360.2 634.382 363.5 632.456C370.004 628.661 387.549 620.004 388.756 619.994C389.165 619.99 390.694 619.365 392.153 618.603C393.613 617.842 396.538 616.661 398.653 615.979C400.769 615.297 402.95 614.433 403.5 614.058C404.05 613.683 407.875 612.106 412 610.553C416.125 609 420.918 607.115 422.651 606.364C424.384 605.614 426.409 604.997 427.151 604.994C427.893 604.99 429.707 604.358 431.183 603.588C432.658 602.818 435.358 601.869 437.183 601.479C439.007 601.088 440.95 600.43 441.5 600.015C442.05 599.601 444.975 598.694 448 598C451.025 597.306 453.95 596.406 454.5 595.999C455.05 595.593 457.231 594.703 459.347 594.021C461.462 593.339 464.387 592.158 465.847 591.397C467.306 590.635 468.849 590.01 469.277 590.006C471.087 589.992 477.312 583.195 480.223 578.054C481.953 574.999 483.623 572.275 483.934 572C484.618 571.396 486.395 568.554 488.624 564.5C490.463 561.156 505.058 543.96 511.963 537C514.419 534.525 518.92 530.6 521.964 528.278C525.009 525.955 527.95 523.692 528.5 523.249C531.837 520.557 542.859 513.853 544.75 513.364C545.987 513.045 547 512.382 547 511.892C547 511.401 547.563 510.985 548.25 510.966C548.938 510.947 551.3 510.063 553.5 509C558.032 506.811 561.862 506.329 558 508.433C551.475 511.989 528.073 536.138 523.557 543.976C522.976 544.985 519.977 549.565 516.892 554.155C505.346 571.338 500.034 584.731 499.228 598.694C498.637 608.939 499.103 610.77 503.534 615.606C507.103 619.5 507.103 619.5 518.301 619.462C545.652 619.37 585.886 603.342 610.425 582.762C613.216 580.421 616.358 577.829 617.407 577.003C619.502 575.351 630.906 563.862 632.5 561.796C633.05 561.083 635.413 558.188 637.75 555.361C640.087 552.535 642 549.745 642 549.161C642 548.577 642.567 547.74 643.26 547.3C644.823 546.308 650 538.413 650 537.021C650 536.46 650.385 536 650.856 536C651.696 536 657.722 524.356 661.983 514.5C663.172 511.75 664.787 508.082 665.572 506.349C666.358 504.616 667 502.66 667 502.003C667 501.346 667.662 499.614 668.471 498.154C669.28 496.694 670.481 493.475 671.14 491C671.798 488.525 672.473 486.05 672.639 485.5C672.805 484.95 673.43 482.25 674.029 479.5C674.627 476.75 675.524 473.6 676.022 472.5C676.795 470.792 678.569 459.727 680.705 443.286C681.198 439.485 681.607 438.963 684.876 437.966C686.869 437.358 689.4 436.446 690.5 435.94C693.891 434.379 705.038 431.853 715 430.388C720.225 429.62 726.75 428.503 729.5 427.906C739.868 425.655 810.254 428.713 818 431.751C818.825 432.075 824.225 433.135 830 434.107C844.689 436.578 855.236 438.633 857 439.367C863.4 442.031 909.598 445.328 924.768 444.204C935.2 443.431 935.2 443.431 932.35 445.74C930.783 447.01 928.842 448.601 928.037 449.275C926.415 450.633 924.881 451.595 919.881 454.39C918.021 455.429 916.275 456.619 916 457.036C915.069 458.445 885.359 473 883.414 473C882.719 473 876.006 475.947 870.669 478.595C869.112 479.368 867.312 480.015 866.669 480.034C866.026 480.053 863.7 480.937 861.5 482C859.3 483.063 856.893 483.947 856.151 483.966C855.409 483.985 853.384 484.606 851.651 485.346C846.761 487.435 831.695 492.036 829.809 492.017C828.879 492.008 827.859 492.42 827.542 492.933C827.225 493.446 824.385 494.394 821.233 495.041C818.08 495.688 815.028 496.598 814.45 497.065C813.873 497.531 811.398 498.218 808.95 498.593C806.503 498.967 804.05 499.613 803.5 500.028C802.95 500.443 799.8 501.332 796.5 502.003C793.2 502.673 790.05 503.51 789.5 503.861C787.601 505.075 748.863 513.457 729 516.953C705.121 521.156 701.386 521.884 698.988 522.805C697.606 523.336 692.529 527.646 687.706 532.383C682.883 537.12 677.826 541.723 676.468 542.613C675.111 543.502 674 544.845 674 545.596C674 547.066 680.06 546.785 687 544.993C688.925 544.496 695.675 543.423 702 542.607C719.308 540.376 746.811 535.515 750.5 534.035C751.6 533.594 756.325 532.483 761 531.568C774.474 528.928 780.42 527.552 781.551 526.814C782.129 526.437 785.729 525.594 789.551 524.941C793.373 524.288 796.95 523.423 797.5 523.018C798.05 522.613 800.075 521.999 802 521.654C806.482 520.85 820.887 517.007 823.5 515.917C824.6 515.459 827.525 514.596 830 514C832.475 513.404 835.4 512.519 836.5 512.033C837.6 511.547 842.55 509.904 847.5 508.381C852.45 506.859 857.625 505.028 859 504.313C860.375 503.598 862.175 502.994 863 502.972C863.825 502.95 866.3 502.063 868.5 501C870.7 499.937 873.069 499.053 873.764 499.034C874.459 499.015 875.809 498.565 876.764 498.033C877.719 497.502 881.65 495.869 885.5 494.404C889.35 492.939 894.388 490.899 896.695 489.87C899.002 488.842 901.365 488 901.945 488C902.525 488 903 487.64 903 487.201C903 486.761 904.688 485.798 906.75 485.06C908.813 484.322 910.725 483.444 911 483.109C911.275 482.774 914.101 481.15 917.279 479.5C932.636 471.528 939.333 466.837 948 457.983C956.841 448.951 957.523 448.102 958.5 444.923C958.91 443.59 959.665 441.974 960.178 441.33C960.692 440.687 961.618 436.148 962.237 431.245C963.171 423.848 963.092 420.812 961.771 413.415C960.113 404.131 957.714 394.931 956.056 391.5C955.525 390.4 953.933 386.675 952.52 383.222C948.733 373.968 939.306 356.174 935.936 351.919C934.321 349.88 933 347.779 933 347.25C933 346.721 931.425 344.225 929.5 341.704C927.575 339.183 926 336.858 926 336.539C926 335.275 906.871 311.986 898.928 303.58C894.293 298.674 887.278 292.092 883.341 288.954C879.403 285.816 875.578 282.738 874.841 282.115C869.806 277.86 863.043 273 862.157 273C861.575 273 860.74 272.427 860.3 271.726C859.471 270.406 856.588 268.419 850.701 265.113C848.816 264.054 846.2 262.583 844.887 261.844C843.574 261.105 842.275 260.26 842 259.967C840.163 258.009 812.683 243.749 800.5 238.431C798.85 237.711 795.387 236.194 792.805 235.061C790.223 233.927 787.816 233 787.456 233C787.096 233 785.384 232.379 783.651 231.619C781.918 230.86 776.9 229.029 772.5 227.551C768.1 226.073 763.803 224.497 762.95 224.048C762.098 223.6 758.723 222.684 755.45 222.014C752.178 221.343 748.6 220.434 747.5 219.994C740.885 217.345 721.826 213.771 701.5 211.367C676.993 208.469 611.736 209.477 595 213.012C590.214 214.023 576.056 216.387 564.5 218.105C560.65 218.677 556.6 219.536 555.5 220.014C554.4 220.493 550.125 221.389 546 222.007C541.875 222.624 537.825 223.408 537 223.748C535.106 224.528 525.858 226.646 515.5 228.671C503.924 230.934 498.902 229.692 484.278 220.951C477.881 217.128 472.315 214 471.907 214C471.5 214 471.017 213.651 470.833 213.224C470.481 212.404 455.772 202.593 450.094 199.392C446.199 197.196 444.451 196.118 440.99 193.78C434.036 189.083 408.152 176.102 391.5 168.962C390.4 168.491 385.675 166.903 381 165.435C376.325 163.966 371.6 162.391 370.5 161.934C368.18 160.97 355.894 158.262 348.19 157.015C339.536 155.615 310.091 155.051 302.009 156.13ZM695.591 298.622C689.591 299.39 684.191 300.406 683.591 300.879C682.991 301.352 680.7 302.064 678.5 302.46C674.184 303.238 669.463 305.169 658.5 310.639C637.292 321.222 628.954 332.484 636.889 339.827C638.477 341.297 640.39 342.955 641.139 343.511C643.676 345.396 659.643 353 661.076 353.006C661.859 353.01 663.821 353.701 665.435 354.543C668.569 356.177 671.596 357.05 685 360.183C697.13 363.018 702.968 363.847 716 364.585C727.861 365.257 755.907 363.576 758.853 362.016C759.759 361.537 763.326 360.597 766.779 359.929C770.233 359.261 773.297 358.329 773.588 357.857C773.88 357.386 774.854 357 775.752 357C778.959 357 791.851 349.914 795.765 346C801.629 340.136 802.082 335.329 797.461 328C794.168 322.778 782.316 313 779.28 313C778.667 313 778.017 312.663 777.833 312.25C777.155 310.723 761.131 303.566 756 302.498C754.075 302.097 752.009 301.375 751.409 300.894C749.713 299.534 725.537 296.987 715.506 297.112C710.553 297.174 701.591 297.853 695.591 298.622ZM804 375.027C796.471 376.788 792.086 386.69 795.728 393.708C798.548 399.142 802.097 401.385 807.878 401.385C813.531 401.385 817.193 399.371 820.044 394.696C822.128 391.278 822.658 385.524 820.984 384.49C820.425 384.144 820.204 383.479 820.493 383.012C821.335 381.649 814.465 375 812.214 375C811.086 375 809.564 374.822 808.832 374.604C808.099 374.387 805.925 374.577 804 375.027ZM353.893 500.441C353.581 500.753 350.665 501.488 347.413 502.074C335.361 504.248 321.574 513.407 317.011 522.272C313.919 528.278 313.275 538.441 315.708 542.83C317.668 546.363 319.502 547.644 327.5 551.067C334.042 553.866 338.56 558.253 341.697 564.85C343.957 569.605 344.186 571.109 343.755 578.35C343.33 585.502 342.761 587.457 339.105 594.316C336.814 598.615 332.333 605.59 329.147 609.816C325.961 614.042 321.812 619.75 319.927 622.5C318.042 625.25 316.238 627.725 315.918 628C314.01 629.638 297 662.663 297 664.729C297 665.067 298.374 663.269 300.053 660.734C304.025 654.737 320.294 638.499 329.925 630.919C339.853 623.105 338.933 623.773 343.5 621.064C345.7 619.759 349.808 617.198 352.629 615.372C358.728 611.426 375.226 603 376.855 603C377.485 603 378 602.55 378 602C378 601.45 378.563 600.997 379.25 600.994C379.938 600.99 381.694 600.365 383.153 599.603C384.613 598.842 387.538 597.661 389.653 596.979C391.769 596.297 393.95 595.426 394.5 595.043C395.05 594.66 401.575 592.196 409 589.566C416.425 586.937 423.4 584.407 424.5 583.945C425.6 583.483 430.325 581.903 435 580.435C439.675 578.966 444.4 577.389 445.5 576.929C446.6 576.469 449.525 575.546 452 574.878C454.475 574.209 456.928 573.289 457.45 572.831C457.973 572.374 459.098 571.996 459.95 571.99C464.669 571.96 478.133 563.342 475.153 562.259C474.413 561.989 471.488 559.739 468.653 557.258C459.215 548.995 456.256 546.516 453.426 544.5C451.882 543.4 448.723 540.925 446.406 539C441.017 534.522 438.749 532.787 432 527.979C428.975 525.823 426.043 523.677 425.484 523.209C424.926 522.742 422.226 521.062 419.484 519.478C416.743 517.893 414.275 516.324 414 515.992C413.273 515.113 396.945 507.356 394 506.49C392.625 506.086 391.05 505.399 390.5 504.963C387.387 502.498 355.745 498.589 353.893 500.441Z" fill="white"/>
</g>
<path id="sq2" class="square" d="M528.836 732.876C530.093 732.881 530.093 732.881 531.375 732.886C532.253 732.886 533.131 732.886 534.036 732.886C536.952 732.887 539.869 732.895 542.785 732.902C544.802 732.904 546.818 732.906 548.834 732.907C554.153 732.91 559.471 732.92 564.789 732.931C570.212 732.942 575.634 732.946 581.057 732.951C591.704 732.962 602.352 732.979 613 733C613 733.66 613 734.32 613 735C613.66 735 614.32 735 615 735C615.046 743.762 615.082 752.525 615.104 761.287C615.114 765.357 615.128 769.426 615.151 773.495C615.173 777.424 615.185 781.353 615.19 785.282C615.193 786.779 615.201 788.276 615.211 789.772C615.226 791.874 615.228 793.975 615.227 796.077C615.232 797.271 615.236 798.466 615.241 799.697C614.993 803.102 614.22 805.824 613 809C601.43 809.023 589.861 809.041 578.291 809.052C572.919 809.057 567.548 809.064 562.176 809.075C556.995 809.086 551.815 809.092 546.634 809.095C544.654 809.097 542.674 809.1 540.694 809.106C537.928 809.113 535.163 809.114 532.397 809.114C531.159 809.119 531.159 809.119 529.897 809.124C524.228 809.114 524.228 809.114 522 808C521.977 798.369 521.959 788.738 521.948 779.107C521.943 774.635 521.936 770.163 521.925 765.692C521.914 761.38 521.908 757.068 521.905 752.756C521.903 751.108 521.9 749.459 521.894 747.81C521.887 745.509 521.886 743.208 521.886 740.906C521.884 739.594 521.882 738.282 521.88 736.93C522.09 731.798 524.256 732.884 528.836 732.876Z" fill="white"/>
<path id="sq8" class="square" d="M845 733C874.7 733 904.4 733 935 733C936.479 735.959 936.127 738.61 936.129 741.912C936.132 742.978 936.132 742.978 936.135 744.066C936.139 746.42 936.136 748.775 936.133 751.129C936.133 752.76 936.134 754.392 936.136 756.023C936.137 759.444 936.135 762.864 936.13 766.285C936.125 770.679 936.128 775.073 936.134 779.467C936.138 782.836 936.136 786.205 936.134 789.574C936.133 791.195 936.134 792.815 936.136 794.436C936.139 796.696 936.135 798.957 936.129 801.217C936.129 802.506 936.128 803.794 936.127 805.122C936 808 936 808 935 809C932.236 809.101 929.497 809.136 926.732 809.129C925.433 809.132 925.433 809.132 924.106 809.135C921.227 809.139 918.348 809.136 915.469 809.133C913.477 809.133 911.486 809.134 909.494 809.136C905.314 809.137 901.134 809.135 896.955 809.13C891.584 809.125 886.213 809.128 880.843 809.134C876.729 809.138 872.614 809.136 868.5 809.134C866.519 809.133 864.538 809.134 862.558 809.136C859.794 809.139 857.031 809.135 854.268 809.129C853.441 809.131 852.613 809.133 851.761 809.136C846.114 809.114 846.114 809.114 845 808C844.905 805.657 844.874 803.345 844.886 801.002C844.886 800.258 844.886 799.515 844.886 798.749C844.887 796.331 844.894 793.914 844.902 791.496C844.904 790.008 844.905 788.52 844.905 787.031C844.911 781.5 844.925 775.969 844.937 770.438C844.958 758.083 844.979 745.729 845 733Z" fill="white"/>
<path id="sq1" class="square" d="M416 733C438.421 732.96 438.421 732.96 447.943 732.951C454.453 732.945 460.963 732.938 467.472 732.925C472.718 732.914 477.963 732.908 483.209 732.905C485.215 732.903 487.221 732.9 489.227 732.894C492.026 732.887 494.825 732.886 497.625 732.886C498.463 732.883 499.301 732.879 500.164 732.876C505.886 732.886 505.886 732.886 507 734C507.1 736.295 507.128 738.593 507.129 740.891C507.132 741.971 507.132 741.971 507.135 743.073C507.139 745.466 507.136 747.858 507.133 750.25C507.133 751.905 507.134 753.561 507.136 755.216C507.137 758.689 507.135 762.163 507.13 765.637C507.125 770.099 507.128 774.562 507.134 779.024C507.138 782.444 507.136 785.863 507.134 789.283C507.133 790.928 507.134 792.574 507.136 794.22C507.139 796.517 507.135 798.813 507.129 801.109C507.129 802.419 507.128 803.728 507.127 805.077C507 808 507 808 506 809C503.272 809.1 500.569 809.136 497.84 809.129C496.557 809.132 496.557 809.132 495.248 809.135C492.406 809.139 489.565 809.136 486.723 809.133C484.756 809.133 482.789 809.134 480.822 809.136C476.694 809.137 472.565 809.135 468.437 809.13C463.136 809.125 457.835 809.128 452.534 809.134C448.47 809.138 444.406 809.136 440.343 809.134C438.388 809.133 436.433 809.134 434.478 809.136C431.748 809.139 429.019 809.135 426.289 809.129C425.475 809.131 424.661 809.133 423.822 809.135C418.229 809.114 418.229 809.114 416 808C416 783.25 416 758.5 416 733Z" fill="white"/>
<path id="sq5" class="square" d="M739 733C750.587 732.977 762.174 732.959 773.761 732.948C779.14 732.943 784.52 732.936 789.9 732.925C795.087 732.914 800.274 732.908 805.461 732.905C807.445 732.903 809.428 732.9 811.412 732.894C814.18 732.887 816.948 732.886 819.717 732.886C820.545 732.883 821.374 732.879 822.228 732.876C827.886 732.886 827.886 732.886 829 734C829.094 736.301 829.117 738.604 829.114 740.906C829.114 741.628 829.114 742.35 829.114 743.094C829.113 745.491 829.105 747.888 829.098 750.285C829.096 751.943 829.094 753.6 829.093 755.258C829.09 759.63 829.08 764.001 829.069 768.372C829.058 772.83 829.054 777.287 829.049 781.744C829.038 790.496 829.021 799.248 829 808C825.775 809.612 822.253 809.138 818.711 809.129C817.425 809.132 817.425 809.132 816.114 809.135C813.272 809.139 810.431 809.136 807.59 809.133C805.622 809.133 803.654 809.134 801.687 809.136C797.56 809.137 793.433 809.135 789.306 809.13C784.004 809.125 778.702 809.128 773.4 809.134C769.336 809.138 765.273 809.136 761.209 809.134C759.253 809.133 757.298 809.134 755.342 809.136C752.615 809.139 749.887 809.135 747.16 809.129C746.344 809.131 745.528 809.133 744.687 809.135C739.114 809.114 739.114 809.114 738 808C737.9 805.741 737.872 803.478 737.871 801.217C737.869 800.508 737.867 799.799 737.865 799.069C737.861 796.714 737.864 794.359 737.867 792.004C737.867 790.373 737.866 788.743 737.864 787.113C737.863 783.69 737.865 780.268 737.87 776.845C737.875 772.452 737.872 768.059 737.866 763.666C737.862 760.298 737.864 756.929 737.866 753.56C737.867 751.94 737.866 750.32 737.864 748.7C737.861 746.438 737.865 744.175 737.871 741.912C737.871 740.623 737.872 739.334 737.873 738.005C738 735 738 735 739 733Z" fill="white"/>
<path id="sq3" class="square" d="M631 733C660.7 733 690.4 733 721 733C721 758.08 721 783.16 721 809C698.579 809.04 698.579 809.04 689.057 809.049C682.547 809.055 676.037 809.062 669.528 809.075C664.282 809.086 659.037 809.092 653.791 809.095C651.785 809.097 649.779 809.1 647.773 809.106C644.974 809.113 642.175 809.114 639.375 809.114C638.537 809.117 637.699 809.121 636.836 809.124C631.114 809.114 631.114 809.114 630 808C629.9 805.741 629.872 803.478 629.871 801.217C629.869 800.508 629.867 799.799 629.865 799.069C629.861 796.714 629.864 794.359 629.867 792.004C629.867 790.373 629.866 788.743 629.864 787.113C629.863 783.69 629.865 780.268 629.87 776.845C629.875 772.452 629.872 768.06 629.866 763.667C629.862 760.298 629.864 756.929 629.866 753.56C629.867 751.94 629.866 750.32 629.864 748.7C629.861 746.438 629.865 744.175 629.871 741.912C629.871 740.623 629.872 739.334 629.873 738.005C630 735 630 735 631 733Z" fill="white"/>
<path id="sq4" class="square" d="M637.897 641.751C638.722 641.758 639.547 641.766 640.397 641.773C641.265 641.773 642.134 641.772 643.028 641.772C645.907 641.773 648.785 641.789 651.664 641.805C653.657 641.808 655.649 641.811 657.642 641.813C662.893 641.821 668.143 641.841 673.394 641.863C679.691 641.887 685.988 641.896 692.284 641.908C701.856 641.927 711.428 641.965 721 642C721 667.08 721 692.16 721 718C698.579 718.04 698.579 718.04 689.057 718.049C682.547 718.055 676.037 718.062 669.528 718.075C664.282 718.086 659.037 718.092 653.791 718.095C651.785 718.097 649.779 718.1 647.773 718.106C644.974 718.113 642.175 718.114 639.375 718.114C638.537 718.117 637.699 718.121 636.836 718.124C631.114 718.114 631.114 718.114 630 717C629.895 714.741 629.861 712.479 629.855 710.217C629.85 709.154 629.85 709.154 629.845 708.069C629.835 705.714 629.833 703.359 629.832 701.004C629.829 699.373 629.825 697.743 629.822 696.113C629.816 692.69 629.814 689.268 629.815 685.845C629.815 681.452 629.801 677.06 629.784 672.667C629.773 669.298 629.771 665.929 629.771 662.56C629.77 660.94 629.766 659.32 629.758 657.7C629.748 655.437 629.751 653.175 629.757 650.912C629.756 649.623 629.754 648.334 629.753 647.005C630.211 641.434 632.97 641.769 637.897 641.751Z" fill="white"/>
<path id="sq7" class="square" d="M739 553C768.7 553 798.4 553 829 553C829 577.42 829 601.84 829 627C828.34 627 827.68 627 827 627C827 627.66 827 628.32 827 629C797.96 629 768.92 629 739 629C738.41 618.373 737.848 607.928 737.867 597.316C737.866 596.128 737.865 594.94 737.864 593.716C737.864 591.247 737.865 588.777 737.87 586.308C737.875 582.517 737.87 578.727 737.863 574.936C737.864 572.521 737.865 570.106 737.867 567.691C737.865 566.56 737.863 565.429 737.861 564.264C737.864 563.221 737.867 562.178 737.871 561.104C737.871 560.188 737.872 559.272 737.873 558.328C738 556 738 556 739 553Z" fill="white"/>
<path id="sq6" class="square" d="M739 642C768.04 642 797.08 642 827 642C827 642.66 827 643.32 827 644C827.66 644 828.32 644 829 644C829 668.42 829 692.84 829 718C799.3 718 769.6 718 739 718C738.814 706.203 738.629 694.405 738.438 682.25C738.376 678.528 738.315 674.805 738.252 670.97C738.184 666.417 738.184 666.417 738.153 664.285C738.131 662.799 738.107 661.312 738.081 659.826C738.042 657.572 738.009 655.318 737.978 653.063C737.958 651.793 737.938 650.523 737.918 649.214C738 646 738 646 739 642Z" fill="white"/>
</svg>
