<?xml version='1.0' encoding='utf-8'?>
<svg xmlns="http://www.w3.org/2000/svg" width="1024" height="1024" viewBox="0 0 1024 1024" fill="none"><path id="sq1" class="square" d="M416 733C438.421 732.96 438.421 732.96 447.943 732.951C454.453 732.945 460.963 732.938 467.472 732.925C472.718 732.914 477.963 732.908 483.209 732.905C485.215 732.903 487.221 732.9 489.227 732.894C492.026 732.887 494.825 732.886 497.625 732.886C498.463 732.883 499.301 732.879 500.164 732.876C505.886 732.886 505.886 732.886 507 734C507.1 736.295 507.128 738.593 507.129 740.891C507.132 741.971 507.132 741.971 507.135 743.073C507.139 745.466 507.136 747.858 507.133 750.25C507.133 751.905 507.134 753.561 507.136 755.216C507.137 758.689 507.135 762.163 507.13 765.637C507.125 770.099 507.128 774.562 507.134 779.024C507.138 782.444 507.136 785.863 507.134 789.283C507.133 790.928 507.134 792.574 507.136 794.22C507.139 796.517 507.135 798.813 507.129 801.109C507.129 802.419 507.128 803.728 507.127 805.077C507 808 507 808 506 809C503.272 809.1 500.569 809.136 497.84 809.129C496.557 809.132 496.557 809.132 495.248 809.135C492.406 809.139 489.565 809.136 486.723 809.133C484.756 809.133 482.789 809.134 480.822 809.136C476.694 809.137 472.565 809.135 468.437 809.13C463.136 809.125 457.835 809.128 452.534 809.134C448.47 809.138 444.406 809.136 440.343 809.134C438.388 809.133 436.433 809.134 434.478 809.136C431.748 809.139 429.019 809.135 426.289 809.129C425.475 809.131 424.661 809.133 423.822 809.135C418.229 809.114 418.229 809.114 416 808C416 783.25 416 758.5 416 733Z" fill="white" />
</svg>