<?xml version='1.0' encoding='utf-8'?>
<svg xmlns="http://www.w3.org/2000/svg" width="1024" height="1024" viewBox="0 0 1024 1024" fill="none"><path id="sq2" class="square" d="M528.836 732.876C530.093 732.881 530.093 732.881 531.375 732.886C532.253 732.886 533.131 732.886 534.036 732.886C536.952 732.887 539.869 732.895 542.785 732.902C544.802 732.904 546.818 732.906 548.834 732.907C554.153 732.91 559.471 732.92 564.789 732.931C570.212 732.942 575.634 732.946 581.057 732.951C591.704 732.962 602.352 732.979 613 733C613 733.66 613 734.32 613 735C613.66 735 614.32 735 615 735C615.046 743.762 615.082 752.525 615.104 761.287C615.114 765.357 615.128 769.426 615.151 773.495C615.173 777.424 615.185 781.353 615.19 785.282C615.193 786.779 615.201 788.276 615.211 789.772C615.226 791.874 615.228 793.975 615.227 796.077C615.232 797.271 615.236 798.466 615.241 799.697C614.993 803.102 614.22 805.824 613 809C601.43 809.023 589.861 809.041 578.291 809.052C572.919 809.057 567.548 809.064 562.176 809.075C556.995 809.086 551.815 809.092 546.634 809.095C544.654 809.097 542.674 809.1 540.694 809.106C537.928 809.113 535.163 809.114 532.397 809.114C531.159 809.119 531.159 809.119 529.897 809.124C524.228 809.114 524.228 809.114 522 808C521.977 798.369 521.959 788.738 521.948 779.107C521.943 774.635 521.936 770.163 521.925 765.692C521.914 761.38 521.908 757.068 521.905 752.756C521.903 751.108 521.9 749.459 521.894 747.81C521.887 745.509 521.886 743.208 521.886 740.906C521.884 739.594 521.882 738.282 521.88 736.93C522.09 731.798 524.256 732.884 528.836 732.876Z" fill="white" />
</svg>