<?xml version='1.0' encoding='utf-8'?>
<svg xmlns="http://www.w3.org/2000/svg" width="1024" height="1024" viewBox="0 0 1024 1024" fill="none"><path id="sq3" class="square" d="M631 733C660.7 733 690.4 733 721 733C721 758.08 721 783.16 721 809C698.579 809.04 698.579 809.04 689.057 809.049C682.547 809.055 676.037 809.062 669.528 809.075C664.282 809.086 659.037 809.092 653.791 809.095C651.785 809.097 649.779 809.1 647.773 809.106C644.974 809.113 642.175 809.114 639.375 809.114C638.537 809.117 637.699 809.121 636.836 809.124C631.114 809.114 631.114 809.114 630 808C629.9 805.741 629.872 803.478 629.871 801.217C629.869 800.508 629.867 799.799 629.865 799.069C629.861 796.714 629.864 794.359 629.867 792.004C629.867 790.373 629.866 788.743 629.864 787.113C629.863 783.69 629.865 780.268 629.87 776.845C629.875 772.452 629.872 768.06 629.866 763.667C629.862 760.298 629.864 756.929 629.866 753.56C629.867 751.94 629.866 750.32 629.864 748.7C629.861 746.438 629.865 744.175 629.871 741.912C629.871 740.623 629.872 739.334 629.873 738.005C630 735 630 735 631 733Z" fill="white" />
</svg>