<?xml version='1.0' encoding='utf-8'?>
<svg xmlns="http://www.w3.org/2000/svg" width="1024" height="1024" viewBox="0 0 1024 1024" fill="none"><path id="sq4" class="square" d="M637.897 641.751C638.722 641.758 639.547 641.766 640.397 641.773C641.265 641.773 642.134 641.772 643.028 641.772C645.907 641.773 648.785 641.789 651.664 641.805C653.657 641.808 655.649 641.811 657.642 641.813C662.893 641.821 668.143 641.841 673.394 641.863C679.691 641.887 685.988 641.896 692.284 641.908C701.856 641.927 711.428 641.965 721 642C721 667.08 721 692.16 721 718C698.579 718.04 698.579 718.04 689.057 718.049C682.547 718.055 676.037 718.062 669.528 718.075C664.282 718.086 659.037 718.092 653.791 718.095C651.785 718.097 649.779 718.1 647.773 718.106C644.974 718.113 642.175 718.114 639.375 718.114C638.537 718.117 637.699 718.121 636.836 718.124C631.114 718.114 631.114 718.114 630 717C629.895 714.741 629.861 712.479 629.855 710.217C629.85 709.154 629.85 709.154 629.845 708.069C629.835 705.714 629.833 703.359 629.832 701.004C629.829 699.373 629.825 697.743 629.822 696.113C629.816 692.69 629.814 689.268 629.815 685.845C629.815 681.452 629.801 677.06 629.784 672.667C629.773 669.298 629.771 665.929 629.771 662.56C629.77 660.94 629.766 659.32 629.758 657.7C629.748 655.437 629.751 653.175 629.757 650.912C629.756 649.623 629.754 648.334 629.753 647.005C630.211 641.434 632.97 641.769 637.897 641.751Z" fill="white" />
</svg>