<?xml version='1.0' encoding='utf-8'?>
<svg xmlns="http://www.w3.org/2000/svg" width="1024" height="1024" viewBox="0 0 1024 1024" fill="none"><path id="sq5" class="square" d="M739 733C750.587 732.977 762.174 732.959 773.761 732.948C779.14 732.943 784.52 732.936 789.9 732.925C795.087 732.914 800.274 732.908 805.461 732.905C807.445 732.903 809.428 732.9 811.412 732.894C814.18 732.887 816.948 732.886 819.717 732.886C820.545 732.883 821.374 732.879 822.228 732.876C827.886 732.886 827.886 732.886 829 734C829.094 736.301 829.117 738.604 829.114 740.906C829.114 741.628 829.114 742.35 829.114 743.094C829.113 745.491 829.105 747.888 829.098 750.285C829.096 751.943 829.094 753.6 829.093 755.258C829.09 759.63 829.08 764.001 829.069 768.372C829.058 772.83 829.054 777.287 829.049 781.744C829.038 790.496 829.021 799.248 829 808C825.775 809.612 822.253 809.138 818.711 809.129C817.425 809.132 817.425 809.132 816.114 809.135C813.272 809.139 810.431 809.136 807.59 809.133C805.622 809.133 803.654 809.134 801.687 809.136C797.56 809.137 793.433 809.135 789.306 809.13C784.004 809.125 778.702 809.128 773.4 809.134C769.336 809.138 765.273 809.136 761.209 809.134C759.253 809.133 757.298 809.134 755.342 809.136C752.615 809.139 749.887 809.135 747.16 809.129C746.344 809.131 745.528 809.133 744.687 809.135C739.114 809.114 739.114 809.114 738 808C737.9 805.741 737.872 803.478 737.871 801.217C737.869 800.508 737.867 799.799 737.865 799.069C737.861 796.714 737.864 794.359 737.867 792.004C737.867 790.373 737.866 788.743 737.864 787.113C737.863 783.69 737.865 780.268 737.87 776.845C737.875 772.452 737.872 768.059 737.866 763.666C737.862 760.298 737.864 756.929 737.866 753.56C737.867 751.94 737.866 750.32 737.864 748.7C737.861 746.438 737.865 744.175 737.871 741.912C737.871 740.623 737.872 739.334 737.873 738.005C738 735 738 735 739 733Z" fill="white" />
</svg>