<?xml version='1.0' encoding='utf-8'?>
<svg xmlns="http://www.w3.org/2000/svg" width="1024" height="1024" viewBox="0 0 1024 1024" fill="none"><path id="sq6" class="square" d="M739 642C768.04 642 797.08 642 827 642C827 642.66 827 643.32 827 644C827.66 644 828.32 644 829 644C829 668.42 829 692.84 829 718C799.3 718 769.6 718 739 718C738.814 706.203 738.629 694.405 738.438 682.25C738.376 678.528 738.315 674.805 738.252 670.97C738.184 666.417 738.184 666.417 738.153 664.285C738.131 662.799 738.107 661.312 738.081 659.826C738.042 657.572 738.009 655.318 737.978 653.063C737.958 651.793 737.938 650.523 737.918 649.214C738 646 738 646 739 642Z" fill="white" />
</svg>