<?xml version='1.0' encoding='utf-8'?>
<svg xmlns="http://www.w3.org/2000/svg" width="1024" height="1024" viewBox="0 0 1024 1024" fill="none"><path id="sq7" class="square" d="M739 553C768.7 553 798.4 553 829 553C829 577.42 829 601.84 829 627C828.34 627 827.68 627 827 627C827 627.66 827 628.32 827 629C797.96 629 768.92 629 739 629C738.41 618.373 737.848 607.928 737.867 597.316C737.866 596.128 737.865 594.94 737.864 593.716C737.864 591.247 737.865 588.777 737.87 586.308C737.875 582.517 737.87 578.727 737.863 574.936C737.864 572.521 737.865 570.106 737.867 567.691C737.865 566.56 737.863 565.429 737.861 564.264C737.864 563.221 737.867 562.178 737.871 561.104C737.871 560.188 737.872 559.272 737.873 558.328C738 556 738 556 739 553Z" fill="white" />
</svg>