<?xml version='1.0' encoding='utf-8'?>
<svg xmlns="http://www.w3.org/2000/svg" width="1024" height="1024" viewBox="0 0 1024 1024" fill="none"><path id="sq8" class="square" d="M845 733C874.7 733 904.4 733 935 733C936.479 735.959 936.127 738.61 936.129 741.912C936.132 742.978 936.132 742.978 936.135 744.066C936.139 746.42 936.136 748.775 936.133 751.129C936.133 752.76 936.134 754.392 936.136 756.023C936.137 759.444 936.135 762.864 936.13 766.285C936.125 770.679 936.128 775.073 936.134 779.467C936.138 782.836 936.136 786.205 936.134 789.574C936.133 791.195 936.134 792.815 936.136 794.436C936.139 796.696 936.135 798.957 936.129 801.217C936.129 802.506 936.128 803.794 936.127 805.122C936 808 936 808 935 809C932.236 809.101 929.497 809.136 926.732 809.129C925.433 809.132 925.433 809.132 924.106 809.135C921.227 809.139 918.348 809.136 915.469 809.133C913.477 809.133 911.486 809.134 909.494 809.136C905.314 809.137 901.134 809.135 896.955 809.13C891.584 809.125 886.213 809.128 880.843 809.134C876.729 809.138 872.614 809.136 868.5 809.134C866.519 809.133 864.538 809.134 862.558 809.136C859.794 809.139 857.031 809.135 854.268 809.129C853.441 809.131 852.613 809.133 851.761 809.136C846.114 809.114 846.114 809.114 845 808C844.905 805.657 844.874 803.345 844.886 801.002C844.886 800.258 844.886 799.515 844.886 798.749C844.887 796.331 844.894 793.914 844.902 791.496C844.904 790.008 844.905 788.52 844.905 787.031C844.911 781.5 844.925 775.969 844.937 770.438C844.958 758.083 844.979 745.729 845 733Z" fill="white" />
</svg>